<?xml version="1.0" standalone="no"?>
<!DOCTYPE svg PUBLIC "-//W3C//DTD SVG 20010904//EN"
 "http://www.w3.org/TR/2001/REC-SVG-20010904/DTD/svg10.dtd">
<svg version="1.0" xmlns="http://www.w3.org/2000/svg"
 width="512.000000pt" height="512.000000pt" viewBox="0 0 512.000000 512.000000"
 preserveAspectRatio="xMidYMid meet">
<metadata>
Created by potrace 1.11, written by Peter Selinger 2001-2013
</metadata>
<g transform="translate(0.000000,512.000000) scale(0.100000,-0.100000)"
fill="#000000" stroke="none">
<path d="M2365 4609 c-710 -67 -1345 -509 -1655 -1150 -198 -412 -254 -860
-164 -1309 154 -767 751 -1392 1513 -1585 320 -80 684 -80 1001 0 286 72 577
218 802 401 83 69 241 228 310 314 192 241 339 559 402 870 116 571 -11 1143
-360 1630 -70 99 -250 289 -351 372 -417 341 -964 507 -1498 457z m1502 -1151
l23 -21 0 -845 0 -844 -29 -29 -29 -29 -1280 0 -1280 0 -31 26 -31 26 0 844 0
845 25 24 24 25 1292 0 1293 0 23 -22z"/>
<path d="M1745 3253 c-10 -73 -48 -147 -103 -202 -60 -60 -108 -85 -190 -101
l-62 -13 0 -347 0 -348 48 -7 c151 -21 292 -160 309 -305 l6 -50 797 0 797 0
7 49 c20 149 156 284 309 306 l47 7 0 348 0 347 -49 6 c-146 17 -291 162 -308
307 l-6 50 -797 0 -798 0 -7 -47z m928 -100 c98 -31 194 -124 253 -248 101
-210 98 -430 -7 -643 -169 -344 -569 -344 -738 0 -100 203 -107 406 -22 609
71 168 196 279 336 298 61 9 115 4 178 -16z"/>
<path d="M2382 2893 l-104 -98 51 -50 51 -49 39 38 c21 21 41 34 43 29 3 -4 5
-96 4 -203 l-1 -195 -87 -3 -88 -3 0 -59 0 -60 260 0 260 0 0 60 0 59 -87 3
-88 3 0 309 0 310 -75 3 -75 4 -103 -98z"/>
</g>
</svg>
